<svg xmlns="http://www.w3.org/2000/svg" xmlns:xlink="http://www.w3.org/1999/xlink" width="500" zoomAndPan="magnify" viewBox="0 0 375 374.999991" height="500" preserveAspectRatio="xMidYMid meet" version="1.2"><defs><clipPath id="bbe39210bd"><path d="M 37.5 127 L 291 127 L 291 298.160156 L 37.5 298.160156 Z M 37.5 127 "/></clipPath><clipPath id="6121234899"><path d="M 37.5 85 L 292 85 L 292 167 L 37.5 167 Z M 37.5 85 "/></clipPath><clipPath id="864e1464c6"><path d="M 109 64.160156 L 234 64.160156 L 234 217 L 109 217 Z M 109 64.160156 "/></clipPath></defs><g id="3dd913fe66"><path style=" stroke:none;fill-rule:nonzero;fill:#fff8e9;fill-opacity:1;" d="M 261.3125 243.808594 C 267.585938 243.796875 276.996094 243.316406 282.539062 240.375 C 289.078125 236.898438 293.386719 230.390625 296.976562 223.910156 C 304.875 209.640625 310.671875 194.070312 312.714844 177.886719 C 313.226562 173.824219 313.5 169.667969 312.644531 165.660156 C 311.460938 160.132812 308.070312 155.105469 303.382812 151.945312 C 298.695312 148.78125 292.765625 147.515625 287.195312 148.488281 L 288.335938 133.546875 C 303.582031 134.707031 323.355469 137.132812 327.75 157.082031 C 334.335938 186.960938 315.269531 230.976562 298.484375 246.738281 C 287.367188 257.171875 271.753906 263.484375 257.148438 259.125 Z M 261.3125 243.808594 "/><path style=" stroke:none;fill-rule:nonzero;fill:#a16f99;fill-opacity:1;" d="M 266.910156 262.382812 C 263.40625 262.382812 259.949219 261.898438 256.617188 260.902344 L 254.882812 260.382812 L 259.890625 241.957031 L 261.308594 241.953125 C 270.691406 241.9375 277.734375 240.824219 281.667969 238.734375 C 287.882812 235.433594 292.074219 228.933594 295.351562 223.011719 C 303.773438 207.796875 308.996094 192.535156 310.875 177.652344 C 311.320312 174.113281 311.664062 169.960938 310.828125 166.050781 C 309.742188 160.96875 306.652344 156.386719 302.34375 153.480469 C 298.039062 150.574219 292.632812 149.421875 287.515625 150.316406 L 285.164062 150.726562 L 286.628906 131.554688 L 288.476562 131.695312 C 301.121094 132.65625 324.660156 134.449219 329.5625 156.683594 C 336.527344 188.273438 316.230469 232.621094 299.753906 248.089844 C 289.847656 257.390625 278.125 262.382812 266.910156 262.382812 Z M 259.425781 257.8125 C 271.746094 260.726562 285.734375 256.160156 297.214844 245.386719 C 313.261719 230.320312 332.394531 186.769531 325.9375 157.480469 C 322.117188 140.136719 305.6875 136.863281 290.042969 135.542969 L 289.21875 146.371094 C 294.546875 145.984375 299.980469 147.40625 304.421875 150.40625 C 309.515625 153.84375 313.171875 159.261719 314.457031 165.273438 C 315.410156 169.730469 315.039062 174.265625 314.554688 178.117188 C 312.621094 193.46875 307.25 209.179688 298.597656 224.808594 C 295.054688 231.207031 290.480469 238.257812 283.410156 242.011719 C 279.09375 244.304688 272.140625 245.53125 262.730469 245.652344 Z M 259.425781 257.8125 "/><path style=" stroke:none;fill-rule:nonzero;fill:#fff8e9;fill-opacity:1;" d="M 289.109375 127.417969 C 285.898438 159.367188 281.339844 185.421875 272.84375 216.386719 C 266.605469 239.125 259.421875 264.136719 240.015625 277.527344 C 226.226562 287.039062 206.304688 293.027344 189.636719 294.691406 C 167.207031 296.925781 144.238281 297.566406 122.453125 291.777344 C 100.667969 285.992188 81.683594 282.785156 67.375 253.933594 C 54.609375 228.203125 43.039062 161.382812 39.398438 127.617188 Z M 289.109375 127.417969 "/><g clip-rule="nonzero" clip-path="url(#bbe39210bd)"><path style=" stroke:none;fill-rule:nonzero;fill:#a16f99;fill-opacity:1;" d="M 161.035156 298.152344 C 148.390625 298.152344 134.964844 297.023438 121.976562 293.570312 C 120.574219 293.199219 119.183594 292.835938 117.800781 292.476562 C 97.238281 287.125 79.476562 282.503906 65.710938 254.757812 C 53.101562 229.335938 41.453125 163.980469 37.550781 127.816406 L 41.242188 127.417969 C 45.113281 163.316406 56.625 228.089844 69.035156 253.109375 C 82.046875 279.339844 99.050781 283.765625 118.738281 288.886719 C 120.121094 289.246094 121.519531 289.609375 122.929688 289.984375 C 145.957031 296.101562 170.578125 294.726562 189.453125 292.84375 C 207.550781 291.039062 226.519531 284.585938 238.960938 276 C 258.207031 262.722656 265.332031 236.757812 271.054688 215.894531 C 279.230469 186.09375 283.925781 160.40625 287.265625 127.234375 L 290.957031 127.605469 C 287.597656 160.996094 282.867188 186.863281 274.632812 216.878906 C 268.75 238.320312 261.425781 265.011719 241.070312 279.054688 C 228.144531 287.972656 208.503906 294.671875 189.820312 296.535156 C 181.191406 297.398438 171.371094 298.152344 161.035156 298.152344 Z M 161.035156 298.152344 "/></g><path style=" stroke:none;fill-rule:nonzero;fill:#fff8e9;fill-opacity:1;" d="M 289.152344 126.136719 C 289.152344 126.769531 289.101562 127.398438 289 128.027344 C 288.902344 128.660156 288.75 129.289062 288.550781 129.914062 C 288.347656 130.542969 288.097656 131.167969 287.800781 131.792969 C 287.5 132.417969 287.148438 133.039062 286.75 133.65625 C 286.351562 134.277344 285.90625 134.890625 285.410156 135.503906 C 284.910156 136.117188 284.367188 136.722656 283.773438 137.328125 C 283.179688 137.929688 282.539062 138.53125 281.851562 139.125 C 281.160156 139.71875 280.425781 140.304688 279.644531 140.890625 C 278.863281 141.472656 278.035156 142.046875 277.160156 142.617188 C 276.285156 143.1875 275.367188 143.753906 274.40625 144.308594 C 273.441406 144.863281 272.433594 145.414062 271.382812 145.957031 C 270.332031 146.496094 269.238281 147.027344 268.101562 147.554688 C 266.96875 148.078125 265.792969 148.59375 264.574219 149.101562 C 263.355469 149.605469 262.097656 150.105469 260.800781 150.59375 C 259.507812 151.078125 258.171875 151.558594 256.796875 152.023438 C 255.425781 152.492188 254.015625 152.949219 252.570312 153.394531 C 251.125 153.839844 249.648438 154.277344 248.132812 154.699219 C 246.617188 155.125 245.070312 155.535156 243.492188 155.9375 C 241.910156 156.335938 240.300781 156.722656 238.660156 157.101562 C 237.015625 157.476562 235.347656 157.839844 233.648438 158.1875 C 231.945312 158.539062 230.222656 158.878906 228.46875 159.203125 C 226.714844 159.527344 224.9375 159.835938 223.132812 160.132812 C 221.332031 160.433594 219.507812 160.714844 217.660156 160.984375 C 215.8125 161.253906 213.941406 161.511719 212.054688 161.75 C 210.167969 161.992188 208.261719 162.21875 206.335938 162.433594 C 204.410156 162.644531 202.472656 162.84375 200.515625 163.027344 C 198.558594 163.210938 196.589844 163.378906 194.605469 163.53125 C 192.625 163.683594 190.632812 163.824219 188.625 163.945312 C 186.621094 164.070312 184.609375 164.175781 182.585938 164.269531 C 180.566406 164.363281 178.535156 164.4375 176.503906 164.5 C 174.46875 164.5625 172.429688 164.609375 170.390625 164.640625 C 168.347656 164.671875 166.304688 164.6875 164.261719 164.6875 C 162.21875 164.6875 160.175781 164.671875 158.132812 164.640625 C 156.09375 164.609375 154.054688 164.5625 152.019531 164.5 C 149.984375 164.4375 147.957031 164.363281 145.9375 164.269531 C 143.914062 164.175781 141.902344 164.070312 139.898438 163.945312 C 137.890625 163.824219 135.898438 163.683594 133.914062 163.53125 C 131.933594 163.378906 129.964844 163.210938 128.007812 163.027344 C 126.050781 162.84375 124.113281 162.644531 122.1875 162.433594 C 120.261719 162.21875 118.355469 161.992188 116.46875 161.75 C 114.578125 161.511719 112.710938 161.253906 110.863281 160.984375 C 109.015625 160.714844 107.191406 160.433594 105.390625 160.132812 C 103.585938 159.835938 101.808594 159.527344 100.054688 159.203125 C 98.300781 158.878906 96.574219 158.539062 94.875 158.1875 C 93.175781 157.839844 91.507812 157.476562 89.863281 157.101562 C 88.222656 156.722656 86.613281 156.335938 85.03125 155.9375 C 83.453125 155.535156 81.90625 155.125 80.390625 154.699219 C 78.875 154.277344 77.398438 153.839844 75.953125 153.394531 C 74.507812 152.949219 73.097656 152.492188 71.722656 152.023438 C 70.351562 151.558594 69.015625 151.078125 67.71875 150.59375 C 66.425781 150.105469 65.167969 149.605469 63.949219 149.101562 C 62.730469 148.59375 61.554688 148.078125 60.417969 147.554688 C 59.285156 147.027344 58.191406 146.496094 57.140625 145.957031 C 56.089844 145.414062 55.082031 144.863281 54.117188 144.308594 C 53.15625 143.753906 52.238281 143.1875 51.363281 142.617188 C 50.488281 142.046875 49.660156 141.472656 48.878906 140.890625 C 48.097656 140.304688 47.359375 139.71875 46.671875 139.125 C 45.984375 138.53125 45.34375 137.929688 44.75 137.328125 C 44.15625 136.722656 43.613281 136.117188 43.113281 135.503906 C 42.617188 134.890625 42.171875 134.277344 41.773438 133.65625 C 41.371094 133.039062 41.023438 132.417969 40.722656 131.792969 C 40.421875 131.167969 40.171875 130.542969 39.972656 129.914062 C 39.773438 129.289062 39.621094 128.660156 39.523438 128.027344 C 39.421875 127.398438 39.371094 126.769531 39.371094 126.136719 C 39.371094 125.507812 39.421875 124.875 39.523438 124.246094 C 39.621094 123.613281 39.773438 122.984375 39.972656 122.359375 C 40.171875 121.730469 40.421875 121.105469 40.722656 120.480469 C 41.023438 119.855469 41.371094 119.234375 41.773438 118.617188 C 42.171875 117.996094 42.617188 117.382812 43.113281 116.769531 C 43.613281 116.15625 44.15625 115.550781 44.75 114.945312 C 45.34375 114.34375 45.984375 113.742188 46.671875 113.148438 C 47.359375 112.554688 48.097656 111.96875 48.878906 111.382812 C 49.660156 110.800781 50.488281 110.226562 51.363281 109.65625 C 52.238281 109.085938 53.15625 108.519531 54.117188 107.964844 C 55.082031 107.410156 56.089844 106.859375 57.140625 106.320312 C 58.191406 105.777344 59.285156 105.246094 60.417969 104.71875 C 61.554688 104.195312 62.730469 103.679688 63.949219 103.171875 C 65.167969 102.667969 66.425781 102.167969 67.71875 101.679688 C 69.015625 101.195312 70.351562 100.714844 71.722656 100.25 C 73.097656 99.78125 74.507812 99.324219 75.953125 98.878906 C 77.398438 98.433594 78.875 97.996094 80.390625 97.574219 C 81.90625 97.148438 83.453125 96.738281 85.03125 96.335938 C 86.613281 95.9375 88.222656 95.550781 89.863281 95.171875 C 91.507812 94.796875 93.175781 94.433594 94.875 94.085938 C 96.574219 93.734375 98.300781 93.394531 100.054688 93.070312 C 101.808594 92.746094 103.585938 92.4375 105.390625 92.140625 C 107.191406 91.84375 109.015625 91.558594 110.863281 91.289062 C 112.710938 91.019531 114.578125 90.761719 116.46875 90.523438 C 118.355469 90.28125 120.261719 90.054688 122.1875 89.839844 C 124.113281 89.628906 126.050781 89.429688 128.007812 89.246094 C 129.964844 89.0625 131.933594 88.894531 133.914062 88.742188 C 135.898438 88.589844 137.890625 88.449219 139.898438 88.328125 C 141.902344 88.203125 143.914062 88.097656 145.9375 88.003906 C 147.957031 87.910156 149.984375 87.835938 152.019531 87.773438 C 154.054688 87.710938 156.09375 87.664062 158.132812 87.632812 C 160.175781 87.601562 162.21875 87.585938 164.261719 87.585938 C 166.304688 87.585938 168.347656 87.601562 170.390625 87.632812 C 172.429688 87.664062 174.46875 87.710938 176.503906 87.773438 C 178.535156 87.835938 180.566406 87.910156 182.585938 88.003906 C 184.609375 88.097656 186.621094 88.203125 188.625 88.328125 C 190.632812 88.449219 192.625 88.589844 194.605469 88.742188 C 196.589844 88.894531 198.558594 89.0625 200.515625 89.246094 C 202.472656 89.429688 204.410156 89.628906 206.335938 89.839844 C 208.261719 90.054688 210.167969 90.28125 212.054688 90.523438 C 213.941406 90.761719 215.8125 91.019531 217.660156 91.289062 C 219.507812 91.558594 221.332031 91.84375 223.132812 92.140625 C 224.9375 92.4375 226.714844 92.746094 228.46875 93.070312 C 230.222656 93.394531 231.945312 93.734375 233.648438 94.085938 C 235.347656 94.433594 237.015625 94.796875 238.660156 95.171875 C 240.300781 95.550781 241.910156 95.9375 243.492188 96.335938 C 245.070312 96.738281 246.617188 97.148438 248.132812 97.574219 C 249.648438 97.996094 251.125 98.433594 252.570312 98.878906 C 254.015625 99.324219 255.425781 99.78125 256.796875 100.25 C 258.171875 100.714844 259.507812 101.195312 260.800781 101.679688 C 262.097656 102.167969 263.355469 102.667969 264.574219 103.171875 C 265.792969 103.679688 266.96875 104.195312 268.101562 104.71875 C 269.238281 105.246094 270.332031 105.777344 271.382812 106.320312 C 272.433594 106.859375 273.441406 107.410156 274.40625 107.964844 C 275.367188 108.519531 276.285156 109.085938 277.160156 109.65625 C 278.035156 110.226562 278.863281 110.800781 279.644531 111.382812 C 280.425781 111.96875 281.160156 112.554688 281.851562 113.148438 C 282.539062 113.742188 283.179688 114.34375 283.773438 114.945312 C 284.367188 115.550781 284.910156 116.15625 285.410156 116.769531 C 285.90625 117.382812 286.351562 117.996094 286.75 118.617188 C 287.148438 119.234375 287.5 119.855469 287.800781 120.480469 C 288.097656 121.105469 288.347656 121.730469 288.550781 122.359375 C 288.75 122.984375 288.902344 123.613281 289 124.246094 C 289.101562 124.875 289.152344 125.507812 289.152344 126.136719 Z M 289.152344 126.136719 "/><g clip-rule="nonzero" clip-path="url(#6121234899)"><path style=" stroke:none;fill-rule:nonzero;fill:#a16f99;fill-opacity:1;" d="M 164.261719 166.542969 C 93.191406 166.542969 37.515625 148.792969 37.515625 126.136719 C 37.515625 103.480469 93.191406 85.730469 164.261719 85.730469 C 235.332031 85.730469 291.007812 103.480469 291.007812 126.136719 C 291.007812 148.792969 235.332031 166.542969 164.261719 166.542969 Z M 164.261719 89.441406 C 97.570312 89.441406 41.226562 106.246094 41.226562 126.136719 C 41.226562 146.027344 97.570312 162.832031 164.261719 162.832031 C 230.953125 162.832031 287.296875 146.027344 287.296875 126.136719 C 287.296875 106.246094 230.953125 89.441406 164.261719 89.441406 Z M 164.261719 89.441406 "/></g><path style=" stroke:none;fill-rule:nonzero;fill:#fff8e9;fill-opacity:1;" d="M 279.640625 125.628906 C 279.640625 126.15625 279.59375 126.683594 279.503906 127.207031 C 279.410156 127.730469 279.273438 128.257812 279.085938 128.78125 C 278.902344 129.300781 278.671875 129.824219 278.394531 130.34375 C 278.117188 130.863281 277.792969 131.382812 277.425781 131.898438 C 277.054688 132.414062 276.644531 132.925781 276.183594 133.4375 C 275.726562 133.945312 275.222656 134.453125 274.671875 134.957031 C 274.125 135.460938 273.535156 135.957031 272.898438 136.453125 C 272.261719 136.949219 271.582031 137.4375 270.859375 137.925781 C 270.136719 138.410156 269.371094 138.890625 268.5625 139.367188 C 267.757812 139.839844 266.90625 140.308594 266.019531 140.773438 C 265.128906 141.238281 264.199219 141.695312 263.226562 142.144531 C 262.257812 142.597656 261.246094 143.039062 260.195312 143.476562 C 259.148438 143.914062 258.0625 144.34375 256.9375 144.765625 C 255.8125 145.1875 254.648438 145.605469 253.453125 146.011719 C 252.253906 146.417969 251.019531 146.816406 249.753906 147.203125 C 248.484375 147.59375 247.183594 147.972656 245.847656 148.347656 C 244.511719 148.71875 243.144531 149.082031 241.746094 149.433594 C 240.347656 149.785156 238.917969 150.128906 237.457031 150.464844 C 236 150.796875 234.511719 151.121094 232.992188 151.433594 C 231.476562 151.746094 229.933594 152.050781 228.363281 152.339844 C 226.792969 152.632812 225.199219 152.914062 223.578125 153.183594 C 221.960938 153.453125 220.316406 153.714844 218.652344 153.960938 C 216.984375 154.210938 215.300781 154.445312 213.59375 154.671875 C 211.886719 154.894531 210.160156 155.109375 208.414062 155.308594 C 206.671875 155.511719 204.910156 155.699219 203.132812 155.878906 C 201.355469 156.054688 199.5625 156.21875 197.753906 156.371094 C 195.949219 156.523438 194.128906 156.664062 192.296875 156.792969 C 190.464844 156.921875 188.625 157.035156 186.769531 157.136719 C 184.917969 157.242188 183.058594 157.332031 181.191406 157.40625 C 179.324219 157.484375 177.449219 157.550781 175.570312 157.601562 C 173.691406 157.652344 171.808594 157.691406 169.921875 157.714844 C 168.035156 157.742188 166.148438 157.753906 164.261719 157.753906 C 162.375 157.753906 160.484375 157.742188 158.601562 157.714844 C 156.714844 157.691406 154.832031 157.652344 152.953125 157.601562 C 151.074219 157.550781 149.199219 157.484375 147.332031 157.40625 C 145.464844 157.332031 143.605469 157.242188 141.753906 157.136719 C 139.898438 157.035156 138.058594 156.921875 136.226562 156.792969 C 134.394531 156.664062 132.574219 156.523438 130.769531 156.371094 C 128.960938 156.21875 127.167969 156.054688 125.390625 155.878906 C 123.613281 155.699219 121.851562 155.511719 120.105469 155.308594 C 118.363281 155.109375 116.636719 154.894531 114.929688 154.671875 C 113.222656 154.445312 111.535156 154.210938 109.871094 153.960938 C 108.207031 153.714844 106.5625 153.453125 104.945312 153.183594 C 103.324219 152.914062 101.730469 152.632812 100.160156 152.339844 C 98.589844 152.050781 97.046875 151.746094 95.53125 151.433594 C 94.011719 151.121094 92.523438 150.796875 91.066406 150.464844 C 89.605469 150.128906 88.175781 149.785156 86.777344 149.433594 C 85.378906 149.082031 84.011719 148.71875 82.675781 148.347656 C 81.339844 147.972656 80.039062 147.59375 78.769531 147.203125 C 77.503906 146.816406 76.269531 146.417969 75.070312 146.011719 C 73.875 145.605469 72.710938 145.1875 71.585938 144.765625 C 70.460938 144.34375 69.375 143.914062 68.328125 143.476562 C 67.277344 143.039062 66.265625 142.597656 65.296875 142.144531 C 64.324219 141.695312 63.394531 141.238281 62.503906 140.773438 C 61.613281 140.308594 60.765625 139.839844 59.957031 139.367188 C 59.152344 138.890625 58.386719 138.410156 57.664062 137.925781 C 56.941406 137.4375 56.261719 136.949219 55.625 136.453125 C 54.988281 135.957031 54.398438 135.460938 53.847656 134.957031 C 53.300781 134.453125 52.796875 133.945312 52.339844 133.4375 C 51.878906 132.925781 51.464844 132.414062 51.097656 131.898438 C 50.730469 131.382812 50.40625 130.863281 50.128906 130.34375 C 49.851562 129.824219 49.621094 129.300781 49.4375 128.78125 C 49.25 128.257812 49.113281 127.730469 49.019531 127.207031 C 48.925781 126.683594 48.882812 126.15625 48.882812 125.628906 C 48.882812 125.105469 48.925781 124.578125 49.019531 124.054688 C 49.113281 123.53125 49.25 123.003906 49.4375 122.480469 C 49.621094 121.957031 49.851562 121.4375 50.128906 120.917969 C 50.40625 120.398438 50.730469 119.878906 51.097656 119.363281 C 51.464844 118.847656 51.878906 118.335938 52.339844 117.824219 C 52.796875 117.316406 53.300781 116.808594 53.847656 116.304688 C 54.398438 115.800781 54.988281 115.304688 55.625 114.808594 C 56.261719 114.3125 56.941406 113.824219 57.664062 113.335938 C 58.386719 112.851562 59.152344 112.371094 59.957031 111.894531 C 60.765625 111.421875 61.613281 110.949219 62.503906 110.488281 C 63.394531 110.023438 64.324219 109.566406 65.296875 109.117188 C 66.265625 108.664062 67.277344 108.21875 68.328125 107.785156 C 69.375 107.347656 70.460938 106.917969 71.585938 106.496094 C 72.710938 106.070312 73.875 105.65625 75.070312 105.25 C 76.269531 104.84375 77.503906 104.445312 78.769531 104.058594 C 80.039062 103.667969 81.339844 103.285156 82.675781 102.914062 C 84.011719 102.542969 85.378906 102.179688 86.777344 101.828125 C 88.175781 101.476562 89.605469 101.132812 91.066406 100.796875 C 92.523438 100.464844 94.011719 100.140625 95.53125 99.828125 C 97.046875 99.515625 98.589844 99.210938 100.160156 98.921875 C 101.730469 98.628906 103.324219 98.347656 104.945312 98.078125 C 106.5625 97.804688 108.207031 97.546875 109.871094 97.300781 C 111.535156 97.050781 113.222656 96.816406 114.929688 96.589844 C 116.636719 96.367188 118.363281 96.152344 120.105469 95.953125 C 121.851562 95.75 123.613281 95.5625 125.390625 95.382812 C 127.167969 95.207031 128.960938 95.042969 130.769531 94.890625 C 132.574219 94.738281 134.394531 94.597656 136.226562 94.46875 C 138.058594 94.339844 139.898438 94.226562 141.753906 94.125 C 143.605469 94.019531 145.464844 93.929688 147.332031 93.855469 C 149.199219 93.777344 151.074219 93.710938 152.953125 93.660156 C 154.832031 93.609375 156.714844 93.570312 158.601562 93.546875 C 160.484375 93.519531 162.375 93.507812 164.261719 93.507812 C 166.148438 93.507812 168.035156 93.519531 169.921875 93.546875 C 171.808594 93.570312 173.691406 93.609375 175.570312 93.660156 C 177.449219 93.710938 179.324219 93.777344 181.191406 93.855469 C 183.058594 93.929688 184.917969 94.019531 186.769531 94.125 C 188.625 94.226562 190.464844 94.339844 192.296875 94.46875 C 194.128906 94.597656 195.949219 94.738281 197.753906 94.890625 C 199.5625 95.042969 201.355469 95.207031 203.132812 95.382812 C 204.910156 95.5625 206.671875 95.75 208.414062 95.953125 C 210.160156 96.152344 211.886719 96.367188 213.59375 96.589844 C 215.300781 96.816406 216.984375 97.050781 218.652344 97.300781 C 220.316406 97.546875 221.960938 97.804688 223.578125 98.078125 C 225.199219 98.347656 226.792969 98.628906 228.363281 98.921875 C 229.933594 99.210938 231.476562 99.515625 232.992188 99.828125 C 234.511719 100.140625 236 100.464844 237.457031 100.796875 C 238.917969 101.132812 240.347656 101.476562 241.746094 101.828125 C 243.144531 102.179688 244.511719 102.542969 245.847656 102.914062 C 247.183594 103.285156 248.484375 103.667969 249.753906 104.058594 C 251.019531 104.445312 252.253906 104.84375 253.453125 105.25 C 254.648438 105.65625 255.8125 106.070312 256.9375 106.496094 C 258.0625 106.917969 259.148438 107.347656 260.195312 107.785156 C 261.246094 108.21875 262.253906 108.664062 263.226562 109.117188 C 264.199219 109.566406 265.128906 110.023438 266.019531 110.488281 C 266.90625 110.949219 267.757812 111.421875 268.5625 111.894531 C 269.371094 112.371094 270.136719 112.851562 270.859375 113.335938 C 271.582031 113.824219 272.261719 114.3125 272.898438 114.808594 C 273.535156 115.304688 274.125 115.800781 274.671875 116.304688 C 275.222656 116.808594 275.726562 117.316406 276.183594 117.824219 C 276.644531 118.335938 277.054688 118.847656 277.425781 119.363281 C 277.792969 119.878906 278.117188 120.398438 278.394531 120.917969 C 278.671875 121.4375 278.902344 121.957031 279.085938 122.480469 C 279.273438 123.003906 279.410156 123.53125 279.503906 124.054688 C 279.59375 124.578125 279.640625 125.105469 279.640625 125.628906 Z M 279.640625 125.628906 "/><path style=" stroke:none;fill-rule:nonzero;fill:#a16f99;fill-opacity:1;" d="M 164.261719 159.609375 C 133.277344 159.609375 104.128906 156.246094 82.179688 150.132812 C 66.140625 145.667969 47.027344 137.792969 47.027344 125.628906 C 47.027344 113.46875 66.140625 105.59375 82.179688 101.128906 C 104.128906 95.015625 133.277344 91.652344 164.261719 91.652344 C 195.246094 91.652344 224.394531 95.015625 246.34375 101.128906 C 262.382812 105.59375 281.496094 113.46875 281.496094 125.628906 C 281.496094 137.792969 262.382812 145.667969 246.34375 150.132812 C 224.394531 156.246094 195.246094 159.609375 164.261719 159.609375 Z M 164.261719 95.363281 C 96.355469 95.363281 50.738281 111.011719 50.738281 125.628906 C 50.738281 140.25 96.355469 155.898438 164.261719 155.898438 C 232.167969 155.898438 277.785156 140.25 277.785156 125.628906 C 277.785156 111.011719 232.167969 95.363281 164.261719 95.363281 Z M 164.261719 95.363281 "/><g clip-rule="nonzero" clip-path="url(#864e1464c6)"><path style=" stroke:none;fill-rule:nonzero;fill:#a16f99;fill-opacity:1;" d="M 233.265625 151.589844 C 227.882812 130.957031 217.472656 106.007812 205.015625 88.640625 C 204.152344 81.148438 202.203125 73.78125 199.253906 66.839844 C 198.929688 66.078125 198.558594 65.277344 197.871094 64.808594 C 196.914062 64.15625 195.574219 64.347656 194.597656 64.96875 C 193.621094 65.59375 192.929688 66.566406 192.285156 67.527344 C 188.460938 73.199219 185.167969 79.222656 182.539062 85.585938 C 169.367188 84.484375 156.09375 84.558594 142.839844 86.027344 C 138.074219 79.863281 133.285156 73.671875 127.632812 68.308594 C 126.222656 66.96875 124.144531 65.609375 122.496094 66.640625 C 121.546875 67.234375 121.167969 68.40625 120.886719 69.492188 C 119.035156 76.667969 118.402344 84.15625 119.378906 92.519531 C 115.960938 102.453125 112.640625 112.558594 111.917969 123.039062 C 111.191406 133.519531 113.3125 144.5625 119.9375 153.324219 C 109.167969 167.679688 108.8125 187.15625 110.25 205.042969 C 110.597656 209.382812 111.683594 214.605469 115.800781 216.015625 C 118.140625 216.816406 120.820312 215.988281 122.699219 214.382812 C 124.582031 212.777344 125.769531 210.503906 126.621094 208.183594 C 129.160156 201.257812 129.023438 193.640625 130.898438 186.511719 C 133.367188 177.121094 140.789062 164.195312 146.933594 156.105469 C 161.292969 156.394531 174.601562 158.125 187.832031 156.636719 C 181.65625 171.035156 179.945312 189.929688 184.015625 205.058594 C 184.914062 208.398438 186.523438 212.132812 189.863281 213.03125 C 193.535156 214.019531 197.101562 210.914062 198.847656 207.539062 C 203.140625 199.253906 201.113281 189.132812 203.425781 180.09375 C 204.550781 175.699219 206.683594 171.640625 208.910156 167.6875 C 212.777344 160.828125 214.839844 160.050781 219.621094 153.535156 C 222.917969 153.25 229.414062 152.257812 233.265625 151.589844 Z M 233.265625 151.589844 "/></g><path style=" stroke:none;fill-rule:nonzero;fill:#fff8e9;fill-opacity:1;" d="M 194.625 72.1875 C 192.570312 74.863281 190.820312 77.796875 189.757812 81.011719 C 189.394531 82.070312 189.101562 83.148438 188.859375 84.242188 C 188.832031 84.382812 188.859375 84.53125 188.9375 84.652344 C 189.429688 85.214844 189.960938 84.730469 189.996094 84.109375 C 190.667969 81.226562 191.5625 78.929688 193.117188 76.257812 C 193.933594 74.824219 194.582031 74.074219 195.496094 72.707031 C 195.710938 72.199219 194.976562 71.761719 194.625 72.1875 Z M 194.625 72.1875 "/><path style=" stroke:none;fill-rule:nonzero;fill:#fff8e9;fill-opacity:1;" d="M 135.085938 85.535156 C 133.207031 82.210938 130.824219 79.203125 128.25 76.394531 C 127.886719 75.996094 127.527344 75.59375 127.167969 75.191406 C 127.070312 75.09375 126.933594 75.035156 126.796875 75.035156 C 126.34375 75.023438 126.09375 75.621094 126.421875 75.933594 C 129.539062 79.273438 131.914062 82.347656 134.265625 86.257812 C 134.714844 86.648438 135.40625 86.039062 135.085938 85.535156 Z M 135.085938 85.535156 "/><path style=" stroke:none;fill-rule:nonzero;fill:#fff8e9;fill-opacity:1;" d="M 159.867188 133.273438 C 158.847656 133.28125 157.558594 133.121094 156.707031 133.769531 C 156.207031 134.4375 156.867188 135.027344 157.5 135.5 C 157.558594 135.570312 157.621094 135.644531 157.679688 135.71875 C 157.980469 136.074219 158.300781 136.453125 158.753906 136.609375 C 159.222656 136.765625 159.632812 136.445312 159.964844 136.15625 C 160.5 135.695312 161.101562 135.277344 161.472656 134.667969 C 162.019531 133.457031 160.757812 133.304688 159.867188 133.273438 Z M 159.867188 133.273438 "/><path style=" stroke:none;fill-rule:nonzero;fill:#fff8e9;fill-opacity:1;" d="M 140.816406 112.398438 C 141.324219 112.515625 141.820312 112.660156 142.3125 112.824219 C 142.804688 112.992188 143.289062 113.183594 143.761719 113.398438 C 144.234375 113.613281 144.695312 113.851562 145.144531 114.109375 C 145.59375 114.371094 146.03125 114.648438 146.453125 114.953125 C 146.875 115.253906 147.28125 115.578125 147.671875 115.921875 C 148.0625 116.261719 148.4375 116.625 148.792969 117.003906 C 149.148438 117.382812 149.480469 117.777344 149.796875 118.191406 C 150.113281 118.601562 150.410156 119.027344 150.683594 119.46875 C 150.957031 119.910156 151.210938 120.363281 151.441406 120.832031 C 151.671875 121.296875 151.875 121.773438 152.058594 122.257812 C 152.242188 122.746094 152.402344 123.238281 152.535156 123.742188 C 152.671875 124.242188 152.78125 124.75 152.863281 125.261719 C 152.949219 125.777344 153.007812 126.289062 153.042969 126.808594 C 153.074219 127.328125 153.085938 127.847656 153.066406 128.367188 C 153.050781 128.886719 153.007812 129.402344 152.941406 129.917969 C 152.871094 130.433594 152.78125 130.941406 152.660156 131.449219 C 152.542969 131.953125 152.402344 132.453125 152.234375 132.945312 C 152.066406 133.4375 151.875 133.917969 151.660156 134.394531 C 151.449219 134.867188 151.210938 135.328125 150.949219 135.777344 C 150.691406 136.226562 150.410156 136.664062 150.105469 137.085938 C 149.804688 137.507812 149.480469 137.914062 149.140625 138.304688 C 148.796875 138.695312 148.4375 139.070312 148.054688 139.421875 C 147.675781 139.777344 147.28125 140.113281 146.871094 140.429688 C 146.457031 140.746094 146.03125 141.042969 145.589844 141.316406 C 145.148438 141.589844 144.695312 141.84375 144.230469 142.074219 C 143.761719 142.300781 143.285156 142.507812 142.800781 142.691406 C 142.316406 142.875 141.820312 143.035156 141.320312 143.167969 C 140.816406 143.300781 140.308594 143.410156 139.796875 143.496094 C 139.285156 143.582031 138.769531 143.640625 138.25 143.675781 C 137.730469 143.707031 137.214844 143.714844 136.695312 143.699219 C 136.175781 143.683594 135.65625 143.640625 135.144531 143.570312 C 134.628906 143.503906 134.117188 143.410156 133.613281 143.292969 C 133.105469 143.175781 132.605469 143.03125 132.113281 142.867188 C 131.621094 142.699219 131.140625 142.507812 130.667969 142.292969 C 130.195312 142.078125 129.730469 141.84375 129.28125 141.582031 C 128.832031 141.324219 128.394531 141.042969 127.972656 140.738281 C 127.550781 140.4375 127.144531 140.113281 126.753906 139.769531 C 126.363281 139.429688 125.992188 139.066406 125.636719 138.6875 C 125.28125 138.308594 124.945312 137.914062 124.628906 137.5 C 124.3125 137.089844 124.019531 136.664062 123.742188 136.222656 C 123.46875 135.78125 123.21875 135.328125 122.988281 134.859375 C 122.757812 134.394531 122.550781 133.917969 122.367188 133.433594 C 122.183594 132.945312 122.027344 132.453125 121.890625 131.949219 C 121.757812 131.449219 121.648438 130.941406 121.5625 130.429688 C 121.480469 129.917969 121.417969 129.402344 121.386719 128.882812 C 121.351562 128.363281 121.34375 127.84375 121.359375 127.328125 C 121.378906 126.808594 121.417969 126.289062 121.488281 125.773438 C 121.554688 125.257812 121.648438 124.75 121.765625 124.242188 C 121.882812 123.738281 122.027344 123.238281 122.195312 122.746094 C 122.359375 122.253906 122.550781 121.773438 122.765625 121.300781 C 122.980469 120.824219 123.21875 120.363281 123.476562 119.914062 C 123.738281 119.464844 124.019531 119.027344 124.320312 118.605469 C 124.625 118.183594 124.945312 117.777344 125.289062 117.386719 C 125.632812 116.996094 125.992188 116.625 126.371094 116.269531 C 126.75 115.914062 127.144531 115.578125 127.558594 115.261719 C 127.96875 114.945312 128.398438 114.648438 128.839844 114.375 C 129.28125 114.101562 129.734375 113.847656 130.199219 113.621094 C 130.664062 113.390625 131.140625 113.183594 131.628906 113 C 132.113281 112.816406 132.609375 112.660156 133.109375 112.523438 C 133.609375 112.390625 134.117188 112.28125 134.632812 112.195312 C 135.144531 112.109375 135.660156 112.050781 136.175781 112.019531 C 136.695312 111.984375 137.214844 111.976562 137.734375 111.992188 C 138.253906 112.007812 138.769531 112.050781 139.285156 112.121094 C 139.800781 112.1875 140.3125 112.28125 140.816406 112.398438 Z M 140.816406 112.398438 "/><path style=" stroke:none;fill-rule:nonzero;fill:#a16f99;fill-opacity:1;" d="M 149.964844 127.847656 C 149.964844 128.683594 149.882812 129.511719 149.71875 130.332031 C 149.554688 131.15625 149.3125 131.953125 148.992188 132.726562 C 148.671875 133.5 148.28125 134.234375 147.816406 134.929688 C 147.347656 135.625 146.820312 136.269531 146.230469 136.859375 C 145.636719 137.453125 144.992188 137.980469 144.296875 138.445312 C 143.601562 138.910156 142.867188 139.304688 142.09375 139.625 C 141.320312 139.945312 140.523438 140.1875 139.703125 140.351562 C 138.878906 140.515625 138.050781 140.59375 137.214844 140.59375 C 136.375 140.59375 135.546875 140.515625 134.726562 140.351562 C 133.90625 140.1875 133.109375 139.945312 132.335938 139.625 C 131.5625 139.304688 130.828125 138.910156 130.128906 138.445312 C 129.433594 137.980469 128.789062 137.453125 128.199219 136.859375 C 127.605469 136.269531 127.078125 135.625 126.613281 134.929688 C 126.148438 134.234375 125.753906 133.5 125.433594 132.726562 C 125.113281 131.953125 124.871094 131.15625 124.710938 130.332031 C 124.546875 129.511719 124.464844 128.683594 124.464844 127.847656 C 124.464844 127.007812 124.546875 126.179688 124.710938 125.359375 C 124.871094 124.539062 125.113281 123.742188 125.433594 122.96875 C 125.753906 122.195312 126.148438 121.457031 126.613281 120.761719 C 127.078125 120.066406 127.605469 119.421875 128.199219 118.832031 C 128.789062 118.238281 129.433594 117.710938 130.128906 117.246094 C 130.828125 116.78125 131.5625 116.386719 132.335938 116.066406 C 133.109375 115.746094 133.90625 115.503906 134.726562 115.339844 C 135.546875 115.179688 136.375 115.097656 137.214844 115.097656 C 138.050781 115.097656 138.878906 115.179688 139.703125 115.339844 C 140.523438 115.503906 141.320312 115.746094 142.09375 116.066406 C 142.867188 116.386719 143.601562 116.78125 144.296875 117.246094 C 144.992188 117.710938 145.636719 118.238281 146.230469 118.832031 C 146.820312 119.421875 147.347656 120.066406 147.816406 120.761719 C 148.28125 121.457031 148.671875 122.195312 148.992188 122.96875 C 149.3125 123.742188 149.554688 124.539062 149.71875 125.359375 C 149.882812 126.179688 149.964844 127.007812 149.964844 127.847656 Z M 149.964844 127.847656 "/><path style=" stroke:none;fill-rule:nonzero;fill:#fff8e9;fill-opacity:1;" d="M 198.789062 127.375 C 198.789062 127.902344 198.765625 128.429688 198.714844 128.957031 C 198.660156 129.484375 198.582031 130.007812 198.480469 130.527344 C 198.378906 131.042969 198.25 131.558594 198.09375 132.0625 C 197.941406 132.570312 197.761719 133.066406 197.5625 133.554688 C 197.359375 134.046875 197.132812 134.523438 196.882812 134.988281 C 196.632812 135.457031 196.363281 135.910156 196.066406 136.351562 C 195.773438 136.789062 195.460938 137.214844 195.125 137.625 C 194.789062 138.03125 194.433594 138.421875 194.058594 138.796875 C 193.683594 139.171875 193.292969 139.527344 192.882812 139.863281 C 192.476562 140.199219 192.050781 140.511719 191.609375 140.808594 C 191.171875 141.101562 190.71875 141.371094 190.25 141.621094 C 189.785156 141.871094 189.304688 142.097656 188.816406 142.300781 C 188.328125 142.503906 187.832031 142.679688 187.324219 142.835938 C 186.816406 142.988281 186.304688 143.117188 185.785156 143.21875 C 185.269531 143.324219 184.746094 143.398438 184.21875 143.453125 C 183.691406 143.503906 183.164062 143.53125 182.632812 143.53125 C 182.105469 143.53125 181.578125 143.503906 181.050781 143.453125 C 180.523438 143.398438 180 143.324219 179.484375 143.21875 C 178.964844 143.117188 178.449219 142.988281 177.945312 142.835938 C 177.4375 142.679688 176.941406 142.503906 176.453125 142.300781 C 175.964844 142.097656 175.484375 141.871094 175.019531 141.621094 C 174.550781 141.371094 174.097656 141.101562 173.660156 140.808594 C 173.21875 140.511719 172.792969 140.199219 172.386719 139.863281 C 171.976562 139.527344 171.585938 139.171875 171.210938 138.796875 C 170.835938 138.421875 170.480469 138.03125 170.144531 137.625 C 169.808594 137.214844 169.496094 136.789062 169.203125 136.351562 C 168.90625 135.910156 168.636719 135.457031 168.386719 134.988281 C 168.136719 134.523438 167.910156 134.046875 167.707031 133.554688 C 167.503906 133.066406 167.328125 132.570312 167.175781 132.0625 C 167.019531 131.558594 166.890625 131.042969 166.789062 130.527344 C 166.6875 130.007812 166.609375 129.484375 166.554688 128.957031 C 166.503906 128.429688 166.476562 127.902344 166.476562 127.375 C 166.476562 126.84375 166.503906 126.316406 166.554688 125.789062 C 166.609375 125.261719 166.6875 124.742188 166.789062 124.222656 C 166.890625 123.703125 167.019531 123.191406 167.175781 122.683594 C 167.328125 122.175781 167.503906 121.679688 167.707031 121.191406 C 167.910156 120.703125 168.136719 120.222656 168.386719 119.757812 C 168.636719 119.292969 168.90625 118.835938 169.203125 118.398438 C 169.496094 117.957031 169.808594 117.535156 170.144531 117.125 C 170.480469 116.714844 170.835938 116.324219 171.210938 115.949219 C 171.585938 115.574219 171.976562 115.21875 172.386719 114.886719 C 172.792969 114.550781 173.21875 114.234375 173.660156 113.941406 C 174.097656 113.644531 174.550781 113.375 175.019531 113.125 C 175.484375 112.875 175.964844 112.648438 176.453125 112.449219 C 176.941406 112.246094 177.4375 112.066406 177.945312 111.914062 C 178.449219 111.757812 178.964844 111.632812 179.484375 111.527344 C 180 111.425781 180.523438 111.347656 181.050781 111.296875 C 181.578125 111.242188 182.105469 111.21875 182.632812 111.21875 C 183.164062 111.21875 183.691406 111.242188 184.21875 111.296875 C 184.746094 111.347656 185.269531 111.425781 185.785156 111.527344 C 186.304688 111.632812 186.816406 111.757812 187.324219 111.914062 C 187.832031 112.066406 188.328125 112.246094 188.816406 112.449219 C 189.304688 112.648438 189.785156 112.875 190.25 113.125 C 190.71875 113.375 191.171875 113.644531 191.609375 113.941406 C 192.050781 114.234375 192.476562 114.550781 192.882812 114.886719 C 193.292969 115.21875 193.683594 115.574219 194.058594 115.949219 C 194.433594 116.324219 194.789062 116.714844 195.125 117.125 C 195.460938 117.535156 195.773438 117.957031 196.066406 118.398438 C 196.363281 118.835938 196.632812 119.292969 196.882812 119.757812 C 197.132812 120.222656 197.359375 120.703125 197.5625 121.191406 C 197.761719 121.679688 197.941406 122.175781 198.09375 122.683594 C 198.25 123.191406 198.378906 123.703125 198.480469 124.222656 C 198.582031 124.742188 198.660156 125.261719 198.714844 125.789062 C 198.765625 126.316406 198.789062 126.84375 198.789062 127.375 Z M 198.789062 127.375 "/><path style=" stroke:none;fill-rule:nonzero;fill:#a16f99;fill-opacity:1;" d="M 195.621094 127.375 C 195.621094 128.226562 195.539062 129.070312 195.371094 129.90625 C 195.203125 130.742188 194.957031 131.554688 194.632812 132.34375 C 194.304688 133.132812 193.90625 133.878906 193.433594 134.589844 C 192.957031 135.296875 192.421875 135.953125 191.816406 136.554688 C 191.214844 137.160156 190.558594 137.699219 189.847656 138.171875 C 189.140625 138.644531 188.390625 139.042969 187.605469 139.371094 C 186.816406 139.699219 186.003906 139.945312 185.167969 140.109375 C 184.332031 140.277344 183.488281 140.359375 182.632812 140.359375 C 181.78125 140.359375 180.9375 140.277344 180.101562 140.109375 C 179.265625 139.945312 178.453125 139.699219 177.664062 139.371094 C 176.878906 139.042969 176.128906 138.644531 175.421875 138.171875 C 174.710938 137.699219 174.054688 137.160156 173.453125 136.554688 C 172.847656 135.953125 172.3125 135.296875 171.835938 134.589844 C 171.363281 133.878906 170.964844 133.132812 170.636719 132.34375 C 170.3125 131.554688 170.066406 130.742188 169.898438 129.90625 C 169.730469 129.070312 169.648438 128.226562 169.648438 127.375 C 169.648438 126.519531 169.730469 125.675781 169.898438 124.839844 C 170.066406 124.003906 170.3125 123.191406 170.636719 122.40625 C 170.964844 121.617188 171.363281 120.867188 171.835938 120.160156 C 172.3125 119.449219 172.847656 118.792969 173.453125 118.191406 C 174.054688 117.589844 174.710938 117.050781 175.421875 116.578125 C 176.128906 116.101562 176.878906 115.703125 177.664062 115.375 C 178.453125 115.050781 179.265625 114.804688 180.101562 114.636719 C 180.9375 114.472656 181.78125 114.386719 182.632812 114.386719 C 183.488281 114.386719 184.332031 114.472656 185.167969 114.636719 C 186.003906 114.804688 186.816406 115.050781 187.605469 115.375 C 188.390625 115.703125 189.140625 116.101562 189.847656 116.578125 C 190.558594 117.050781 191.214844 117.589844 191.816406 118.191406 C 192.421875 118.792969 192.957031 119.449219 193.433594 120.160156 C 193.90625 120.867188 194.304688 121.617188 194.632812 122.40625 C 194.957031 123.191406 195.203125 124.003906 195.371094 124.839844 C 195.539062 125.675781 195.621094 126.519531 195.621094 127.375 Z M 195.621094 127.375 "/><path style=" stroke:none;fill-rule:nonzero;fill:#a16f99;fill-opacity:1;" d="M 313.535156 203.203125 C 313.351562 203.203125 313.164062 203.175781 312.976562 203.117188 C 312 202.808594 311.457031 201.765625 311.765625 200.789062 C 314.539062 192.035156 317.40625 182.980469 317.5 173.652344 C 317.605469 163.542969 314.066406 154.726562 308.042969 150.070312 C 303.160156 146.292969 296.871094 145.304688 291.359375 144.839844 C 290.339844 144.75 289.582031 143.855469 289.667969 142.832031 C 289.753906 141.8125 290.652344 141.058594 291.671875 141.140625 C 297.722656 141.652344 304.667969 142.765625 310.316406 147.132812 C 317.253906 152.496094 321.324219 162.425781 321.210938 173.691406 C 321.113281 183.574219 318.160156 192.894531 315.304688 201.910156 C 315.054688 202.699219 314.324219 203.203125 313.535156 203.203125 Z M 313.535156 203.203125 "/><path style=" stroke:none;fill-rule:nonzero;fill:#a16f99;fill-opacity:1;" d="M 274.457031 250.910156 C 273.558594 250.910156 272.769531 250.253906 272.625 249.339844 C 272.46875 248.328125 273.160156 247.378906 274.175781 247.222656 C 280.675781 246.210938 287.183594 242.382812 292.5 236.441406 C 297.691406 230.640625 301.277344 223.546875 304.097656 217.375 C 304.523438 216.441406 305.625 216.03125 306.554688 216.457031 C 307.488281 216.882812 307.898438 217.984375 307.472656 218.917969 C 304.535156 225.34375 300.789062 232.746094 295.265625 238.914062 C 289.378906 245.492188 282.089844 249.746094 274.746094 250.886719 C 274.648438 250.902344 274.550781 250.910156 274.457031 250.910156 Z M 274.457031 250.910156 "/></g></svg>