<svg xmlns="http://www.w3.org/2000/svg" xmlns:xlink="http://www.w3.org/1999/xlink" width="500" zoomAndPan="magnify" viewBox="0 0 375 374.999991" height="500" preserveAspectRatio="xMidYMid meet" version="1.2"><defs><clipPath id="cc2389643d"><path d="M 47.335938 126 L 285 126 L 285 286.714844 L 47.335938 286.714844 Z M 47.335938 126 "/></clipPath><clipPath id="24527ef107"><path d="M 47.335938 87 L 285 87 L 285 164 L 47.335938 164 Z M 47.335938 87 "/></clipPath><clipPath id="d2943fce11"><path d="M 114 67.714844 L 231 67.714844 L 231 211 L 114 211 Z M 114 67.714844 "/></clipPath></defs><g id="a302f3df3d"><path style=" stroke:none;fill-rule:nonzero;fill:#ffffff;fill-opacity:1;" d="M 256.796875 235.847656 C 262.671875 235.835938 271.480469 235.386719 276.664062 232.632812 C 282.785156 229.382812 286.820312 223.289062 290.175781 217.222656 C 297.570312 203.867188 302.996094 189.296875 304.90625 174.152344 C 305.386719 170.347656 305.640625 166.457031 304.839844 162.710938 C 303.734375 157.535156 300.558594 152.832031 296.171875 149.871094 C 291.785156 146.910156 286.238281 145.726562 281.023438 146.636719 L 282.089844 132.652344 C 296.359375 133.738281 314.863281 136.011719 318.980469 154.679688 C 325.144531 182.644531 307.300781 223.839844 291.585938 238.589844 C 281.183594 248.355469 266.574219 254.261719 252.902344 250.179688 Z M 256.796875 235.847656 "/><path style=" stroke:none;fill-rule:nonzero;fill:#a16f99;fill-opacity:1;" d="M 262.039062 253.230469 C 258.757812 253.230469 255.527344 252.777344 252.40625 251.84375 L 250.78125 251.359375 L 255.46875 234.113281 L 256.796875 234.109375 C 265.578125 234.097656 272.167969 233.054688 275.851562 231.097656 C 281.667969 228.007812 285.589844 221.925781 288.65625 216.382812 C 296.539062 202.144531 301.429688 187.863281 303.183594 173.933594 C 303.601562 170.617188 303.925781 166.734375 303.140625 163.070312 C 302.125 158.316406 299.230469 154.03125 295.203125 151.308594 C 291.171875 148.589844 286.109375 147.511719 281.324219 148.347656 L 279.125 148.734375 L 280.492188 130.789062 L 282.222656 130.921875 C 294.058594 131.820312 316.089844 133.5 320.675781 154.304688 C 327.191406 183.871094 308.199219 225.375 292.777344 239.855469 C 283.503906 248.558594 272.535156 253.230469 262.039062 253.230469 Z M 255.035156 248.953125 C 266.5625 251.679688 279.65625 247.40625 290.398438 237.324219 C 305.417969 223.222656 323.324219 182.464844 317.285156 155.054688 C 313.707031 138.820312 298.332031 135.757812 283.691406 134.523438 L 282.917969 144.65625 C 287.90625 144.296875 292.988281 145.625 297.144531 148.429688 C 301.914062 151.648438 305.335938 156.722656 306.539062 162.347656 C 307.429688 166.515625 307.085938 170.761719 306.628906 174.367188 C 304.816406 188.734375 299.792969 203.4375 291.695312 218.066406 C 288.378906 224.054688 284.097656 230.648438 277.480469 234.167969 C 273.441406 236.3125 266.933594 237.457031 258.128906 237.574219 Z M 255.035156 248.953125 "/><path style=" stroke:none;fill-rule:nonzero;fill:#ffffff;fill-opacity:1;" d="M 282.816406 126.917969 C 279.808594 156.816406 275.542969 181.203125 267.59375 210.183594 C 261.753906 231.464844 255.03125 254.875 236.867188 267.40625 C 223.964844 276.308594 205.316406 281.910156 189.71875 283.464844 C 168.726562 285.558594 147.230469 286.160156 126.84375 280.742188 C 106.453125 275.324219 88.6875 272.324219 75.292969 245.324219 C 63.347656 221.242188 52.519531 158.707031 49.109375 127.101562 Z M 282.816406 126.917969 "/><g clip-rule="nonzero" clip-path="url(#cc2389643d)"><path style=" stroke:none;fill-rule:nonzero;fill:#a16f99;fill-opacity:1;" d="M 162.949219 286.707031 C 151.113281 286.707031 138.550781 285.648438 126.394531 282.421875 C 125.082031 282.070312 123.78125 281.734375 122.488281 281.398438 C 103.242188 276.386719 86.621094 272.0625 73.738281 246.09375 C 61.933594 222.300781 51.035156 161.136719 47.382812 127.289062 L 50.835938 126.917969 C 54.460938 160.515625 65.234375 221.136719 76.847656 244.550781 C 89.027344 269.101562 104.9375 273.242188 123.363281 278.035156 C 124.660156 278.371094 125.96875 278.714844 127.289062 279.0625 C 148.839844 284.789062 171.878906 283.5 189.546875 281.738281 C 206.484375 280.050781 224.238281 274.007812 235.882812 265.976562 C 253.894531 253.550781 260.558594 229.25 265.917969 209.722656 C 273.570312 181.832031 277.964844 157.792969 281.089844 126.746094 L 284.542969 127.09375 C 281.398438 158.34375 276.972656 182.550781 269.265625 210.644531 C 263.761719 230.710938 256.90625 255.691406 237.855469 268.835938 C 225.757812 277.179688 207.378906 283.449219 189.890625 285.195312 C 181.8125 286 172.625 286.707031 162.949219 286.707031 Z M 162.949219 286.707031 "/></g><path style=" stroke:none;fill-rule:nonzero;fill:#ffffff;fill-opacity:1;" d="M 282.855469 125.71875 C 282.855469 126.308594 282.808594 126.898438 282.714844 127.488281 C 282.621094 128.078125 282.480469 128.667969 282.292969 129.253906 C 282.105469 129.84375 281.871094 130.429688 281.589844 131.011719 C 281.308594 131.597656 280.980469 132.179688 280.609375 132.757812 C 280.234375 133.335938 279.816406 133.910156 279.351562 134.484375 C 278.886719 135.058594 278.375 135.625 277.820312 136.191406 C 277.265625 136.757812 276.667969 137.316406 276.023438 137.871094 C 275.378906 138.429688 274.6875 138.980469 273.957031 139.523438 C 273.226562 140.070312 272.449219 140.609375 271.632812 141.144531 C 270.8125 141.675781 269.953125 142.203125 269.050781 142.726562 C 268.152344 143.246094 267.207031 143.761719 266.226562 144.265625 C 265.242188 144.773438 264.21875 145.269531 263.15625 145.761719 C 262.09375 146.253906 260.992188 146.734375 259.851562 147.210938 C 258.710938 147.683594 257.535156 148.148438 256.324219 148.605469 C 255.109375 149.0625 253.859375 149.507812 252.574219 149.945312 C 251.289062 150.382812 249.972656 150.8125 248.621094 151.230469 C 247.265625 151.648438 245.882812 152.054688 244.464844 152.449219 C 243.046875 152.847656 241.597656 153.234375 240.121094 153.605469 C 238.640625 153.980469 237.132812 154.34375 235.597656 154.695312 C 234.0625 155.046875 232.496094 155.386719 230.90625 155.714844 C 229.316406 156.042969 227.703125 156.359375 226.0625 156.664062 C 224.417969 156.96875 222.757812 157.257812 221.070312 157.535156 C 219.382812 157.816406 217.675781 158.082031 215.945312 158.332031 C 214.214844 158.585938 212.46875 158.824219 210.699219 159.050781 C 208.933594 159.277344 207.148438 159.488281 205.347656 159.6875 C 203.546875 159.886719 201.730469 160.070312 199.898438 160.242188 C 198.070312 160.414062 196.226562 160.570312 194.371094 160.714844 C 192.515625 160.859375 190.648438 160.988281 188.773438 161.101562 C 186.898438 161.21875 185.011719 161.320312 183.121094 161.40625 C 181.230469 161.492188 179.332031 161.566406 177.425781 161.621094 C 175.523438 161.679688 173.617188 161.722656 171.707031 161.753906 C 169.796875 161.78125 167.882812 161.796875 165.96875 161.796875 C 164.058594 161.796875 162.144531 161.78125 160.234375 161.753906 C 158.324219 161.722656 156.417969 161.679688 154.515625 161.621094 C 152.609375 161.566406 150.710938 161.492188 148.820312 161.40625 C 146.925781 161.320312 145.042969 161.21875 143.167969 161.101562 C 141.292969 160.988281 139.425781 160.859375 137.570312 160.714844 C 135.714844 160.570312 133.871094 160.414062 132.039062 160.242188 C 130.210938 160.070312 128.394531 159.886719 126.59375 159.6875 C 124.792969 159.488281 123.007812 159.277344 121.242188 159.050781 C 119.472656 158.824219 117.726562 158.585938 115.996094 158.332031 C 114.265625 158.082031 112.558594 157.816406 110.871094 157.535156 C 109.183594 157.257812 107.519531 156.96875 105.878906 156.664062 C 104.238281 156.359375 102.625 156.042969 101.03125 155.714844 C 99.441406 155.386719 97.878906 155.046875 96.34375 154.695312 C 94.804688 154.34375 93.296875 153.980469 91.820312 153.605469 C 90.339844 153.234375 88.894531 152.847656 87.476562 152.449219 C 86.058594 152.054688 84.671875 151.648438 83.320312 151.230469 C 81.96875 150.8125 80.648438 150.382812 79.363281 149.945312 C 78.082031 149.507812 76.832031 149.0625 75.617188 148.605469 C 74.40625 148.148438 73.226562 147.683594 72.089844 147.210938 C 70.949219 146.734375 69.847656 146.253906 68.785156 145.761719 C 67.722656 145.269531 66.699219 144.773438 65.714844 144.265625 C 64.730469 143.761719 63.789062 143.246094 62.886719 142.726562 C 61.984375 142.203125 61.125 141.675781 60.308594 141.144531 C 59.492188 140.609375 58.714844 140.070312 57.984375 139.523438 C 57.25 138.980469 56.5625 138.429688 55.917969 137.871094 C 55.273438 137.316406 54.675781 136.757812 54.121094 136.191406 C 53.5625 135.625 53.054688 135.058594 52.589844 134.484375 C 52.125 133.910156 51.707031 133.335938 51.332031 132.757812 C 50.960938 132.179688 50.632812 131.597656 50.351562 131.011719 C 50.070312 130.429688 49.835938 129.84375 49.648438 129.253906 C 49.460938 128.667969 49.320312 128.078125 49.226562 127.488281 C 49.132812 126.898438 49.085938 126.308594 49.085938 125.71875 C 49.085938 125.128906 49.132812 124.539062 49.226562 123.949219 C 49.320312 123.359375 49.460938 122.769531 49.648438 122.183594 C 49.835938 121.59375 50.070312 121.007812 50.351562 120.425781 C 50.632812 119.839844 50.960938 119.257812 51.332031 118.679688 C 51.707031 118.101562 52.125 117.523438 52.589844 116.953125 C 53.054688 116.378906 53.5625 115.808594 54.121094 115.246094 C 54.675781 114.679688 55.273438 114.121094 55.917969 113.5625 C 56.5625 113.007812 57.25 112.457031 57.984375 111.910156 C 58.714844 111.367188 59.492188 110.828125 60.308594 110.292969 C 61.125 109.757812 61.984375 109.230469 62.886719 108.710938 C 63.789062 108.191406 64.730469 107.675781 65.714844 107.171875 C 66.699219 106.664062 67.722656 106.164062 68.785156 105.675781 C 69.847656 105.183594 70.949219 104.699219 72.089844 104.226562 C 73.226562 103.753906 74.40625 103.285156 75.617188 102.832031 C 76.832031 102.375 78.082031 101.925781 79.363281 101.488281 C 80.648438 101.050781 81.96875 100.625 83.320312 100.207031 C 84.671875 99.789062 86.058594 99.382812 87.476562 98.984375 C 88.894531 98.589844 90.339844 98.203125 91.820312 97.828125 C 93.296875 97.453125 94.804688 97.089844 96.34375 96.738281 C 97.878906 96.386719 99.441406 96.046875 101.03125 95.71875 C 102.625 95.390625 104.238281 95.078125 105.878906 94.773438 C 107.519531 94.46875 109.183594 94.179688 110.871094 93.898438 C 112.558594 93.621094 114.265625 93.355469 115.996094 93.105469 C 117.726562 92.851562 119.472656 92.613281 121.242188 92.386719 C 123.007812 92.160156 124.792969 91.949219 126.59375 91.75 C 128.394531 91.550781 130.210938 91.363281 132.039062 91.195312 C 133.871094 91.023438 135.714844 90.863281 137.570312 90.722656 C 139.425781 90.578125 141.292969 90.449219 143.167969 90.332031 C 145.042969 90.21875 146.925781 90.117188 148.820312 90.03125 C 150.710938 89.945312 152.609375 89.871094 154.515625 89.8125 C 156.417969 89.757812 158.324219 89.710938 160.234375 89.683594 C 162.144531 89.65625 164.058594 89.640625 165.96875 89.640625 C 167.882812 89.640625 169.796875 89.65625 171.707031 89.683594 C 173.617188 89.710938 175.523438 89.757812 177.425781 89.8125 C 179.332031 89.871094 181.230469 89.945312 183.121094 90.03125 C 185.011719 90.117188 186.898438 90.21875 188.773438 90.332031 C 190.648438 90.449219 192.515625 90.578125 194.371094 90.722656 C 196.226562 90.863281 198.070312 91.023438 199.898438 91.195312 C 201.730469 91.363281 203.546875 91.550781 205.347656 91.75 C 207.148438 91.949219 208.933594 92.160156 210.699219 92.386719 C 212.46875 92.613281 214.214844 92.851562 215.945312 93.105469 C 217.675781 93.355469 219.382812 93.621094 221.070312 93.898438 C 222.757812 94.179688 224.417969 94.46875 226.0625 94.773438 C 227.703125 95.078125 229.316406 95.390625 230.90625 95.71875 C 232.496094 96.046875 234.0625 96.386719 235.597656 96.738281 C 237.132812 97.089844 238.640625 97.453125 240.121094 97.828125 C 241.597656 98.203125 243.046875 98.589844 244.464844 98.984375 C 245.882812 99.382812 247.265625 99.789062 248.621094 100.207031 C 249.972656 100.625 251.289062 101.050781 252.574219 101.488281 C 253.859375 101.925781 255.109375 102.375 256.324219 102.832031 C 257.535156 103.285156 258.710938 103.753906 259.851562 104.226562 C 260.992188 104.699219 262.09375 105.183594 263.15625 105.675781 C 264.21875 106.164062 265.242188 106.664062 266.226562 107.171875 C 267.207031 107.675781 268.152344 108.191406 269.050781 108.710938 C 269.953125 109.230469 270.8125 109.757812 271.632812 110.292969 C 272.449219 110.828125 273.226562 111.367188 273.957031 111.910156 C 274.6875 112.457031 275.378906 113.007812 276.023438 113.5625 C 276.667969 114.121094 277.265625 114.679688 277.820312 115.246094 C 278.375 115.808594 278.886719 116.378906 279.351562 116.953125 C 279.816406 117.523438 280.234375 118.101562 280.609375 118.679688 C 280.980469 119.257812 281.308594 119.839844 281.589844 120.425781 C 281.871094 121.007812 282.105469 121.59375 282.292969 122.183594 C 282.480469 122.769531 282.621094 123.359375 282.714844 123.949219 C 282.808594 124.539062 282.855469 125.128906 282.855469 125.71875 Z M 282.855469 125.71875 "/><g clip-rule="nonzero" clip-path="url(#24527ef107)"><path style=" stroke:none;fill-rule:nonzero;fill:#a16f99;fill-opacity:1;" d="M 165.96875 163.53125 C 99.453125 163.53125 47.351562 146.921875 47.351562 125.71875 C 47.351562 104.515625 99.453125 87.902344 165.96875 87.902344 C 232.488281 87.902344 284.589844 104.515625 284.589844 125.71875 C 284.589844 146.921875 232.488281 163.53125 165.96875 163.53125 Z M 165.96875 91.375 C 103.554688 91.375 50.824219 107.101562 50.824219 125.71875 C 50.824219 144.332031 103.554688 160.058594 165.96875 160.058594 C 228.386719 160.058594 281.117188 144.332031 281.117188 125.71875 C 281.117188 107.101562 228.386719 91.375 165.96875 91.375 Z M 165.96875 91.375 "/></g><path style=" stroke:none;fill-rule:nonzero;fill:#ffffff;fill-opacity:1;" d="M 273.953125 125.246094 C 273.953125 125.738281 273.910156 126.226562 273.824219 126.71875 C 273.738281 127.210938 273.609375 127.703125 273.433594 128.191406 C 273.261719 128.679688 273.046875 129.167969 272.785156 129.65625 C 272.527344 130.144531 272.222656 130.628906 271.878906 131.109375 C 271.535156 131.59375 271.148438 132.074219 270.71875 132.550781 C 270.289062 133.027344 269.816406 133.5 269.304688 133.972656 C 268.792969 134.441406 268.238281 134.910156 267.640625 135.375 C 267.046875 135.835938 266.410156 136.296875 265.734375 136.75 C 265.058594 137.203125 264.34375 137.65625 263.585938 138.097656 C 262.832031 138.542969 262.035156 138.984375 261.203125 139.417969 C 260.371094 139.851562 259.5 140.277344 258.589844 140.703125 C 257.683594 141.125 256.738281 141.539062 255.757812 141.949219 C 254.773438 142.355469 253.757812 142.757812 252.703125 143.15625 C 251.652344 143.550781 250.5625 143.9375 249.441406 144.316406 C 248.320312 144.699219 247.167969 145.070312 245.980469 145.433594 C 244.792969 145.800781 243.578125 146.15625 242.328125 146.503906 C 241.078125 146.851562 239.796875 147.191406 238.488281 147.523438 C 237.179688 147.851562 235.839844 148.171875 234.476562 148.484375 C 233.109375 148.796875 231.714844 149.101562 230.296875 149.394531 C 228.878906 149.6875 227.433594 149.96875 225.964844 150.242188 C 224.492188 150.515625 223 150.78125 221.484375 151.03125 C 219.96875 151.285156 218.433594 151.527344 216.875 151.761719 C 215.316406 151.992188 213.738281 152.214844 212.140625 152.421875 C 210.542969 152.632812 208.925781 152.832031 207.292969 153.019531 C 205.660156 153.210938 204.011719 153.386719 202.347656 153.550781 C 200.683594 153.71875 199.007812 153.871094 197.316406 154.015625 C 195.625 154.15625 193.921875 154.289062 192.207031 154.410156 C 190.492188 154.527344 188.769531 154.636719 187.035156 154.730469 C 185.304688 154.828125 183.5625 154.914062 181.816406 154.984375 C 180.066406 155.058594 178.3125 155.117188 176.554688 155.164062 C 174.796875 155.214844 173.035156 155.25 171.269531 155.273438 C 169.503906 155.296875 167.738281 155.308594 165.96875 155.308594 C 164.203125 155.308594 162.4375 155.296875 160.671875 155.273438 C 158.90625 155.25 157.144531 155.214844 155.386719 155.164062 C 153.628906 155.117188 151.875 155.058594 150.125 154.984375 C 148.378906 154.914062 146.636719 154.828125 144.902344 154.730469 C 143.171875 154.636719 141.445312 154.527344 139.730469 154.410156 C 138.019531 154.289062 136.316406 154.15625 134.625 154.015625 C 132.933594 153.871094 131.253906 153.71875 129.589844 153.550781 C 127.925781 153.386719 126.277344 153.210938 124.648438 153.019531 C 123.015625 152.832031 121.398438 152.632812 119.800781 152.421875 C 118.203125 152.214844 116.625 151.992188 115.066406 151.761719 C 113.507812 151.527344 111.972656 151.285156 110.457031 151.03125 C 108.941406 150.78125 107.445312 150.515625 105.976562 150.242188 C 104.507812 149.96875 103.0625 149.6875 101.644531 149.394531 C 100.226562 149.101562 98.832031 148.796875 97.464844 148.484375 C 96.101562 148.171875 94.761719 147.851562 93.453125 147.523438 C 92.144531 147.191406 90.863281 146.851562 89.613281 146.503906 C 88.363281 146.15625 87.144531 145.800781 85.960938 145.433594 C 84.773438 145.070312 83.617188 144.699219 82.496094 144.316406 C 81.375 143.9375 80.289062 143.550781 79.238281 143.15625 C 78.183594 142.757812 77.167969 142.355469 76.183594 141.949219 C 75.203125 141.539062 74.257812 141.125 73.347656 140.703125 C 72.441406 140.277344 71.570312 139.851562 70.738281 139.417969 C 69.902344 138.984375 69.109375 138.542969 68.355469 138.097656 C 67.597656 137.65625 66.882812 137.203125 66.207031 136.75 C 65.53125 136.296875 64.894531 135.835938 64.296875 135.375 C 63.703125 134.910156 63.148438 134.441406 62.636719 133.972656 C 62.121094 133.5 61.652344 133.027344 61.222656 132.550781 C 60.792969 132.074219 60.40625 131.59375 60.0625 131.109375 C 59.714844 130.628906 59.414062 130.144531 59.15625 129.65625 C 58.894531 129.167969 58.679688 128.679688 58.507812 128.191406 C 58.332031 127.703125 58.203125 127.210938 58.117188 126.71875 C 58.03125 126.226562 57.984375 125.738281 57.984375 125.246094 C 57.984375 124.753906 58.03125 124.261719 58.117188 123.769531 C 58.203125 123.277344 58.332031 122.789062 58.507812 122.296875 C 58.679688 121.808594 58.894531 121.320312 59.15625 120.832031 C 59.414062 120.347656 59.714844 119.863281 60.0625 119.378906 C 60.40625 118.898438 60.792969 118.417969 61.222656 117.941406 C 61.652344 117.460938 62.121094 116.988281 62.636719 116.515625 C 63.148438 116.046875 63.703125 115.578125 64.296875 115.117188 C 64.894531 114.652344 65.53125 114.195312 66.207031 113.738281 C 66.882812 113.285156 67.597656 112.835938 68.355469 112.390625 C 69.109375 111.945312 69.902344 111.507812 70.738281 111.070312 C 71.570312 110.636719 72.441406 110.210938 73.347656 109.789062 C 74.257812 109.367188 75.203125 108.949219 76.183594 108.542969 C 77.167969 108.132812 78.183594 107.730469 79.238281 107.335938 C 80.289062 106.941406 81.375 106.550781 82.496094 106.171875 C 83.617188 105.792969 84.773438 105.417969 85.960938 105.054688 C 87.144531 104.691406 88.363281 104.332031 89.613281 103.984375 C 90.863281 103.636719 92.144531 103.296875 93.453125 102.96875 C 94.761719 102.636719 96.101562 102.316406 97.464844 102.003906 C 98.832031 101.691406 100.226562 101.390625 101.644531 101.097656 C 103.0625 100.804688 104.507812 100.519531 105.976562 100.246094 C 107.445312 99.972656 108.941406 99.710938 110.457031 99.457031 C 111.972656 99.203125 113.507812 98.960938 115.066406 98.730469 C 116.625 98.496094 118.203125 98.277344 119.800781 98.066406 C 121.398438 97.855469 123.015625 97.65625 124.648438 97.46875 C 126.277344 97.28125 127.925781 97.101562 129.589844 96.9375 C 131.253906 96.769531 132.933594 96.617188 134.625 96.472656 C 136.316406 96.332031 138.019531 96.199219 139.730469 96.082031 C 141.445312 95.960938 143.171875 95.851562 144.902344 95.757812 C 146.636719 95.660156 148.378906 95.578125 150.125 95.503906 C 151.875 95.433594 153.628906 95.371094 155.386719 95.324219 C 157.144531 95.277344 158.90625 95.238281 160.671875 95.214844 C 162.4375 95.191406 164.203125 95.179688 165.96875 95.179688 C 167.738281 95.179688 169.503906 95.191406 171.269531 95.214844 C 173.035156 95.238281 174.796875 95.277344 176.554688 95.324219 C 178.3125 95.371094 180.066406 95.433594 181.816406 95.503906 C 183.5625 95.578125 185.304688 95.660156 187.035156 95.757812 C 188.769531 95.851562 190.492188 95.960938 192.207031 96.082031 C 193.921875 96.199219 195.625 96.332031 197.316406 96.472656 C 199.007812 96.617188 200.683594 96.769531 202.347656 96.9375 C 204.011719 97.101562 205.660156 97.28125 207.292969 97.46875 C 208.925781 97.65625 210.542969 97.855469 212.140625 98.066406 C 213.738281 98.277344 215.316406 98.496094 216.875 98.730469 C 218.433594 98.960938 219.96875 99.203125 221.484375 99.457031 C 223 99.710938 224.492188 99.972656 225.964844 100.246094 C 227.433594 100.519531 228.878906 100.804688 230.296875 101.097656 C 231.714844 101.390625 233.109375 101.691406 234.476562 102.003906 C 235.839844 102.316406 237.179688 102.636719 238.488281 102.96875 C 239.796875 103.296875 241.078125 103.636719 242.328125 103.984375 C 243.578125 104.332031 244.792969 104.691406 245.980469 105.054688 C 247.167969 105.417969 248.320312 105.792969 249.441406 106.171875 C 250.5625 106.550781 251.652344 106.941406 252.703125 107.335938 C 253.757812 107.730469 254.773438 108.132812 255.757812 108.542969 C 256.738281 108.949219 257.683594 109.367188 258.589844 109.789062 C 259.5 110.210938 260.371094 110.636719 261.203125 111.070312 C 262.035156 111.507812 262.832031 111.945312 263.585938 112.390625 C 264.34375 112.835938 265.058594 113.285156 265.734375 113.738281 C 266.410156 114.195312 267.046875 114.652344 267.640625 115.117188 C 268.238281 115.578125 268.792969 116.046875 269.304688 116.515625 C 269.816406 116.988281 270.289062 117.460938 270.71875 117.941406 C 271.148438 118.417969 271.535156 118.898438 271.878906 119.378906 C 272.222656 119.863281 272.527344 120.347656 272.785156 120.832031 C 273.046875 121.320312 273.261719 121.808594 273.433594 122.296875 C 273.609375 122.789062 273.738281 123.277344 273.824219 123.769531 C 273.910156 124.261719 273.953125 124.753906 273.953125 125.246094 Z M 273.953125 125.246094 "/><path style=" stroke:none;fill-rule:nonzero;fill:#a16f99;fill-opacity:1;" d="M 165.96875 157.046875 C 136.972656 157.046875 109.691406 153.898438 89.148438 148.175781 C 74.140625 144 56.25 136.628906 56.25 125.246094 C 56.25 113.863281 74.140625 106.492188 89.148438 102.3125 C 109.691406 96.59375 136.972656 93.441406 165.96875 93.441406 C 194.96875 93.441406 222.25 96.59375 242.792969 102.3125 C 257.800781 106.492188 275.691406 113.863281 275.691406 125.246094 C 275.691406 136.628906 257.800781 144 242.792969 148.175781 C 222.25 153.898438 194.96875 157.046875 165.96875 157.046875 Z M 165.96875 96.917969 C 102.414062 96.917969 59.722656 111.5625 59.722656 125.246094 C 59.722656 138.925781 102.414062 153.574219 165.96875 153.574219 C 229.523438 153.574219 272.21875 138.925781 272.21875 125.246094 C 272.21875 111.5625 229.523438 96.917969 165.96875 96.917969 Z M 165.96875 96.917969 "/><g clip-rule="nonzero" clip-path="url(#d2943fce11)"><path style=" stroke:none;fill-rule:nonzero;fill:#a16f99;fill-opacity:1;" d="M 230.550781 149.539062 C 225.511719 130.230469 215.769531 106.878906 204.109375 90.625 C 203.300781 83.613281 201.480469 76.71875 198.71875 70.222656 C 198.414062 69.507812 198.070312 68.757812 197.425781 68.320312 C 196.53125 67.710938 195.273438 67.890625 194.359375 68.472656 C 193.445312 69.054688 192.800781 69.96875 192.195312 70.867188 C 188.621094 76.171875 185.535156 81.8125 183.074219 87.765625 C 170.746094 86.738281 158.328125 86.808594 145.921875 88.179688 C 141.460938 82.410156 136.980469 76.617188 131.691406 71.597656 C 130.371094 70.34375 128.425781 69.074219 126.878906 70.035156 C 125.992188 70.589844 125.640625 71.691406 125.378906 72.703125 C 123.644531 79.421875 123.050781 86.429688 123.964844 94.253906 C 120.765625 103.550781 117.660156 113.011719 116.980469 122.820312 C 116.304688 132.628906 118.289062 142.960938 124.488281 151.160156 C 114.410156 164.597656 114.078125 182.828125 115.417969 199.566406 C 115.746094 203.628906 116.761719 208.515625 120.617188 209.835938 C 122.804688 210.585938 125.3125 209.808594 127.074219 208.308594 C 128.832031 206.804688 129.949219 204.675781 130.742188 202.503906 C 133.117188 196.023438 132.992188 188.898438 134.746094 182.222656 C 137.058594 173.433594 144 161.335938 149.753906 153.765625 C 163.191406 154.039062 175.648438 155.65625 188.03125 154.265625 C 182.25 167.738281 180.648438 185.421875 184.457031 199.582031 C 185.300781 202.707031 186.804688 206.203125 189.929688 207.042969 C 193.367188 207.96875 196.703125 205.0625 198.339844 201.902344 C 202.355469 194.148438 200.460938 184.675781 202.625 176.214844 C 203.675781 172.105469 205.671875 168.304688 207.753906 164.605469 C 211.375 158.183594 213.304688 157.460938 217.78125 151.359375 C 220.867188 151.09375 226.945312 150.164062 230.550781 149.539062 Z M 230.550781 149.539062 "/></g><path style=" stroke:none;fill-rule:nonzero;fill:#ffffff;fill-opacity:1;" d="M 194.386719 75.226562 C 192.464844 77.730469 190.828125 80.476562 189.832031 83.488281 C 189.492188 84.476562 189.214844 85.488281 188.992188 86.507812 C 188.964844 86.640625 188.992188 86.78125 189.066406 86.890625 C 189.527344 87.421875 190.023438 86.964844 190.054688 86.386719 C 190.683594 83.6875 191.519531 81.535156 192.976562 79.039062 C 193.742188 77.695312 194.347656 76.992188 195.203125 75.710938 C 195.402344 75.238281 194.71875 74.828125 194.386719 75.226562 Z M 194.386719 75.226562 "/><path style=" stroke:none;fill-rule:nonzero;fill:#ffffff;fill-opacity:1;" d="M 138.664062 87.71875 C 136.90625 84.609375 134.675781 81.792969 132.269531 79.164062 C 131.925781 78.792969 131.589844 78.414062 131.253906 78.039062 C 131.160156 77.945312 131.035156 77.894531 130.90625 77.894531 C 130.484375 77.878906 130.25 78.441406 130.558594 78.734375 C 133.472656 81.859375 135.695312 84.738281 137.894531 88.394531 C 138.316406 88.761719 138.964844 88.191406 138.664062 87.71875 Z M 138.664062 87.71875 "/><path style=" stroke:none;fill-rule:nonzero;fill:#ffffff;fill-opacity:1;" d="M 161.855469 132.394531 C 160.902344 132.402344 159.695312 132.253906 158.898438 132.863281 C 158.433594 133.484375 159.046875 134.039062 159.640625 134.480469 C 159.699219 134.546875 159.757812 134.617188 159.808594 134.683594 C 160.089844 135.019531 160.390625 135.371094 160.816406 135.519531 C 161.253906 135.667969 161.636719 135.363281 161.949219 135.09375 C 162.449219 134.664062 163.011719 134.273438 163.359375 133.703125 C 163.871094 132.570312 162.691406 132.429688 161.855469 132.394531 Z M 161.855469 132.394531 "/><path style=" stroke:none;fill-rule:nonzero;fill:#ffffff;fill-opacity:1;" d="M 144.027344 112.859375 C 144.976562 113.082031 145.894531 113.394531 146.785156 113.796875 C 147.671875 114.199219 148.511719 114.683594 149.304688 115.25 C 150.097656 115.820312 150.824219 116.457031 151.492188 117.171875 C 152.160156 117.882812 152.75 118.652344 153.261719 119.480469 C 153.777344 120.308594 154.207031 121.175781 154.550781 122.089844 C 154.894531 123 155.144531 123.9375 155.304688 124.902344 C 155.460938 125.863281 155.527344 126.832031 155.492188 127.804688 C 155.460938 128.777344 155.335938 129.742188 155.113281 130.691406 C 154.890625 131.640625 154.582031 132.558594 154.179688 133.445312 C 153.777344 134.332031 153.289062 135.171875 152.722656 135.964844 C 152.15625 136.757812 151.515625 137.488281 150.804688 138.152344 C 150.09375 138.820312 149.324219 139.410156 148.496094 139.925781 C 147.667969 140.441406 146.796875 140.867188 145.886719 141.210938 C 144.972656 141.554688 144.035156 141.804688 143.074219 141.964844 C 142.113281 142.125 141.144531 142.1875 140.171875 142.15625 C 139.195312 142.125 138.234375 141.996094 137.285156 141.773438 C 136.335938 141.554688 135.417969 141.242188 134.527344 140.839844 C 133.640625 140.4375 132.800781 139.953125 132.007812 139.382812 C 131.214844 138.816406 130.488281 138.175781 129.820312 137.464844 C 129.15625 136.753906 128.5625 135.984375 128.050781 135.15625 C 127.535156 134.328125 127.105469 133.457031 126.761719 132.546875 C 126.417969 131.632812 126.167969 130.699219 126.007812 129.734375 C 125.851562 128.773438 125.789062 127.804688 125.820312 126.832031 C 125.851562 125.855469 125.976562 124.894531 126.199219 123.945312 C 126.421875 122.996094 126.734375 122.078125 127.136719 121.191406 C 127.539062 120.304688 128.023438 119.460938 128.589844 118.671875 C 129.15625 117.878906 129.796875 117.148438 130.507812 116.484375 C 131.21875 115.816406 131.988281 115.226562 132.816406 114.710938 C 133.644531 114.195312 134.515625 113.765625 135.429688 113.425781 C 136.339844 113.082031 137.277344 112.828125 138.238281 112.671875 C 139.199219 112.511719 140.167969 112.449219 141.144531 112.480469 C 142.117188 112.511719 143.078125 112.640625 144.027344 112.859375 Z M 144.027344 112.859375 "/><path style=" stroke:none;fill-rule:nonzero;fill:#a16f99;fill-opacity:1;" d="M 152.589844 127.316406 C 152.589844 128.101562 152.511719 128.878906 152.359375 129.644531 C 152.207031 130.414062 151.980469 131.160156 151.679688 131.882812 C 151.378906 132.609375 151.011719 133.296875 150.578125 133.945312 C 150.140625 134.597656 149.648438 135.203125 149.09375 135.753906 C 148.539062 136.308594 147.9375 136.804688 147.285156 137.238281 C 146.632812 137.675781 145.945312 138.042969 145.222656 138.34375 C 144.5 138.640625 143.753906 138.867188 142.984375 139.019531 C 142.214844 139.171875 141.441406 139.25 140.65625 139.25 C 139.871094 139.25 139.097656 139.171875 138.328125 139.019531 C 137.558594 138.867188 136.8125 138.640625 136.089844 138.34375 C 135.367188 138.042969 134.679688 137.675781 134.027344 137.238281 C 133.375 136.804688 132.773438 136.308594 132.21875 135.753906 C 131.664062 135.203125 131.171875 134.597656 130.734375 133.945312 C 130.300781 133.296875 129.933594 132.609375 129.632812 131.882812 C 129.332031 131.160156 129.105469 130.414062 128.953125 129.644531 C 128.800781 128.878906 128.722656 128.101562 128.722656 127.316406 C 128.722656 126.535156 128.800781 125.757812 128.953125 124.988281 C 129.105469 124.222656 129.332031 123.476562 129.632812 122.75 C 129.933594 122.027344 130.300781 121.339844 130.734375 120.6875 C 131.171875 120.039062 131.664062 119.433594 132.21875 118.878906 C 132.773438 118.328125 133.375 117.832031 134.027344 117.398438 C 134.679688 116.960938 135.367188 116.59375 136.089844 116.292969 C 136.8125 115.996094 137.558594 115.769531 138.328125 115.613281 C 139.097656 115.460938 139.871094 115.386719 140.65625 115.386719 C 141.441406 115.386719 142.214844 115.460938 142.984375 115.613281 C 143.753906 115.769531 144.5 115.996094 145.222656 116.292969 C 145.945312 116.59375 146.632812 116.960938 147.285156 117.398438 C 147.9375 117.832031 148.539062 118.328125 149.09375 118.878906 C 149.648438 119.433594 150.140625 120.039062 150.578125 120.6875 C 151.011719 121.339844 151.378906 122.027344 151.679688 122.75 C 151.980469 123.476562 152.207031 124.222656 152.359375 124.988281 C 152.511719 125.757812 152.589844 126.535156 152.589844 127.316406 Z M 152.589844 127.316406 "/><path style=" stroke:none;fill-rule:nonzero;fill:#ffffff;fill-opacity:1;" d="M 198.285156 126.875 C 198.285156 127.867188 198.1875 128.851562 197.996094 129.824219 C 197.800781 130.800781 197.515625 131.746094 197.136719 132.664062 C 196.753906 133.578125 196.289062 134.449219 195.738281 135.277344 C 195.1875 136.101562 194.558594 136.867188 193.859375 137.566406 C 193.15625 138.269531 192.390625 138.898438 191.566406 139.449219 C 190.742188 140 189.871094 140.464844 188.953125 140.84375 C 188.035156 141.226562 187.089844 141.511719 186.117188 141.707031 C 185.140625 141.898438 184.160156 141.996094 183.164062 141.996094 C 182.171875 141.996094 181.191406 141.898438 180.214844 141.707031 C 179.242188 141.511719 178.296875 141.226562 177.378906 140.84375 C 176.460938 140.464844 175.589844 140 174.765625 139.449219 C 173.941406 138.898438 173.175781 138.269531 172.472656 137.566406 C 171.773438 136.867188 171.144531 136.101562 170.59375 135.277344 C 170.042969 134.449219 169.574219 133.578125 169.195312 132.664062 C 168.816406 131.746094 168.53125 130.800781 168.335938 129.824219 C 168.140625 128.851562 168.046875 127.867188 168.046875 126.875 C 168.046875 125.882812 168.140625 124.898438 168.335938 123.925781 C 168.53125 122.953125 168.816406 122.007812 169.195312 121.089844 C 169.574219 120.171875 170.042969 119.300781 170.59375 118.476562 C 171.144531 117.648438 171.773438 116.886719 172.472656 116.183594 C 173.175781 115.480469 173.941406 114.855469 174.765625 114.304688 C 175.589844 113.753906 176.460938 113.285156 177.378906 112.90625 C 178.296875 112.527344 179.242188 112.238281 180.214844 112.046875 C 181.191406 111.851562 182.171875 111.753906 183.164062 111.753906 C 184.160156 111.753906 185.140625 111.851562 186.117188 112.046875 C 187.089844 112.238281 188.035156 112.527344 188.953125 112.90625 C 189.871094 113.285156 190.742188 113.753906 191.566406 114.304688 C 192.390625 114.855469 193.15625 115.480469 193.859375 116.183594 C 194.558594 116.886719 195.1875 117.648438 195.738281 118.476562 C 196.289062 119.300781 196.753906 120.171875 197.136719 121.089844 C 197.515625 122.007812 197.800781 122.953125 197.996094 123.925781 C 198.1875 124.898438 198.285156 125.882812 198.285156 126.875 Z M 198.285156 126.875 "/><path style=" stroke:none;fill-rule:nonzero;fill:#a16f99;fill-opacity:1;" d="M 195.320312 126.875 C 195.320312 127.675781 195.242188 128.464844 195.085938 129.246094 C 194.929688 130.03125 194.699219 130.789062 194.394531 131.527344 C 194.089844 132.265625 193.714844 132.964844 193.269531 133.628906 C 192.828125 134.292969 192.324219 134.90625 191.757812 135.46875 C 191.195312 136.035156 190.582031 136.539062 189.917969 136.980469 C 189.253906 137.425781 188.554688 137.800781 187.816406 138.105469 C 187.078125 138.410156 186.320312 138.640625 185.535156 138.796875 C 184.753906 138.953125 183.964844 139.03125 183.164062 139.03125 C 182.367188 139.03125 181.578125 138.953125 180.792969 138.796875 C 180.011719 138.640625 179.253906 138.410156 178.515625 138.105469 C 177.777344 137.800781 177.078125 137.425781 176.414062 136.980469 C 175.75 136.539062 175.136719 136.035156 174.570312 135.46875 C 174.007812 134.90625 173.503906 134.292969 173.0625 133.628906 C 172.617188 132.964844 172.242188 132.265625 171.9375 131.527344 C 171.632812 130.789062 171.402344 130.03125 171.246094 129.246094 C 171.089844 128.464844 171.011719 127.675781 171.011719 126.875 C 171.011719 126.078125 171.089844 125.289062 171.246094 124.503906 C 171.402344 123.722656 171.632812 122.960938 171.9375 122.226562 C 172.242188 121.488281 172.617188 120.789062 173.058594 120.125 C 173.503906 119.460938 174.007812 118.847656 174.570312 118.28125 C 175.136719 117.71875 175.75 117.214844 176.414062 116.769531 C 177.078125 116.328125 177.777344 115.953125 178.515625 115.648438 C 179.253906 115.34375 180.011719 115.113281 180.792969 114.957031 C 181.578125 114.800781 182.367188 114.722656 183.164062 114.722656 C 183.964844 114.722656 184.753906 114.800781 185.535156 114.957031 C 186.320312 115.113281 187.078125 115.34375 187.816406 115.648438 C 188.554688 115.953125 189.253906 116.328125 189.917969 116.769531 C 190.582031 117.214844 191.195312 117.71875 191.757812 118.28125 C 192.324219 118.847656 192.828125 119.460938 193.269531 120.125 C 193.714844 120.789062 194.089844 121.488281 194.394531 122.226562 C 194.699219 122.960938 194.929688 123.722656 195.085938 124.503906 C 195.242188 125.289062 195.320312 126.078125 195.320312 126.875 Z M 195.320312 126.875 "/><path style=" stroke:none;fill-rule:nonzero;fill:#a16f99;fill-opacity:1;" d="M 305.675781 197.847656 C 305.503906 197.847656 305.328125 197.820312 305.152344 197.765625 C 304.238281 197.476562 303.730469 196.5 304.019531 195.585938 C 306.617188 187.390625 309.296875 178.917969 309.386719 170.1875 C 309.484375 160.726562 306.175781 152.476562 300.535156 148.117188 C 295.964844 144.582031 290.078125 143.65625 284.921875 143.222656 C 283.964844 143.140625 283.257812 142.300781 283.339844 141.34375 C 283.417969 140.386719 284.257812 139.683594 285.214844 139.761719 C 290.875 140.238281 297.375 141.28125 302.660156 145.371094 C 309.152344 150.390625 312.964844 159.679688 312.859375 170.222656 C 312.765625 179.472656 310.003906 188.195312 307.332031 196.632812 C 307.097656 197.375 306.414062 197.847656 305.675781 197.847656 Z M 305.675781 197.847656 "/><path style=" stroke:none;fill-rule:nonzero;fill:#a16f99;fill-opacity:1;" d="M 269.101562 242.492188 C 268.261719 242.492188 267.523438 241.882812 267.386719 241.023438 C 267.242188 240.078125 267.890625 239.1875 268.835938 239.042969 C 274.921875 238.09375 281.011719 234.511719 285.988281 228.949219 C 290.847656 223.523438 294.203125 216.886719 296.84375 211.105469 C 297.242188 210.234375 298.269531 209.851562 299.144531 210.25 C 300.015625 210.648438 300.398438 211.679688 300 212.550781 C 297.25 218.566406 293.746094 225.492188 288.578125 231.269531 C 283.066406 237.425781 276.246094 241.402344 269.371094 242.472656 C 269.28125 242.488281 269.191406 242.492188 269.101562 242.492188 Z M 269.101562 242.492188 "/></g></svg>